<svg xmlns="http://www.w3.org/2000/svg" xmlns:xlink="http://www.w3.org/1999/xlink" viewBox="0,0,256,256" width="144px" height="144px"><g fill="#000000" fill-rule="nonzero" stroke="none" stroke-width="1" stroke-linecap="butt" stroke-linejoin="miter" stroke-miterlimit="10" stroke-dasharray="" stroke-dashoffset="0" font-family="none" font-weight="none" font-size="none" text-anchor="none" style="mix-blend-mode: normal"><g transform="scale(5.33333,5.33333)"><path d="M24,4c-11.044,0 -20,8.956 -20,20c0,11.044 8.956,20 20,20c11.044,0 20,-8.956 20,-20c0,-11.044 -8.956,-20 -20,-20zM24,41c-9.391,0 -17,-7.609 -17,-17c0,-9.391 7.609,-17 17,-17c9.391,0 17,7.609 17,17c0,9.391 -7.609,17 -17,17z"></path><path d="M35.641,25.563l2.84,0.004l-0.004,2.395l-5.691,-0.012l0.012,-8.172l2.855,0.004zM26.34,25.102l-4.699,3.684l-4.285,-3.379c-0.621,1.484 -2.109,2.52 -3.836,2.516l-3.664,-0.004l0.008,-8.172l3.668,0.004c1.926,0.004 3.309,1.223 3.828,2.531l4.297,-3.367l1.586,1.25l-3.934,3.086l0.754,0.594l3.934,-3.086l1.59,1.254l-3.934,3.082l0.75,0.594l3.941,-3.082l0.004,-2.836l2.852,0.004l-0.008,5.781l2.84,0.004l-0.004,2.391l-5.691,-0.008zM15.012,23.84c0,-1.113 -0.73,-1.742 -1.77,-1.742h-0.637l-0.004,3.477h0.621c0.962,-0.001 1.79,-0.524 1.79,-1.735"></path></g></g></svg>